PathFileType	4	(X/Y/Z)	C:/Users/opensim2020/Desktop/walking_exp_matlab/subject06_walking22_straight_04.trc	
DataRate	CameraRate	NumFrames	NumMarkers	Units	OrigDataRate	OrigDataStartFrame	OrigNumFrames	
100.00	100.00	8	44	mm	100.00	2239	102	
Frame#	Time	LFHD			RFHD			LBHD			RBHD			C7			T10			CLAV			STRN			RBAK			LSHO			LUPA			LELB			LFRM			LWRA			LWRB			LFIN			RSHO			RUPA			RELB			RFRM			RWRA			RWRB			RFIN			LASI			RASI			LPSI			RPSI			LTHI			LKNE			LTIB			LANK			LHEE			LTOE			RTHI			RKNE			RTIB			RANK			RHEE			RTOE			*39			*40			*41			*42			*43			
		X1	Y1	Z1	X2	Y2	Z2	X3	Y3	Z3	X4	Y4	Z4	X5	Y5	Z5	X6	Y6	Z6	X7	Y7	Z7	X8	Y8	Z8	X9	Y9	Z9	X10	Y10	Z10	X11	Y11	Z11	X12	Y12	Z12	X13	Y13	Z13	X14	Y14	Z14	X15	Y15	Z15	X16	Y16	Z16	X17	Y17	Z17	X18	Y18	Z18	X19	Y19	Z19	X20	Y20	Z20	X21	Y21	Z21	X22	Y22	Z22	X23	Y23	Z23	X24	Y24	Z24	X25	Y25	Z25	X26	Y26	Z26	X27	Y27	Z27	X28	Y28	Z28	X29	Y29	Z29	X30	Y30	Z30	X31	Y31	Z31	X32	Y32	Z32	X33	Y33	Z33	X34	Y34	Z34	X35	Y35	Z35	X36	Y36	Z36	X37	Y37	Z37	X38	Y38	Z38	X39	Y39	Z39	X40	Y40	Z40	X41	Y41	Z41	X42	Y42	Z42	X43	Y43	Z43	X44	Y44	Z44	

52	0.510	-891.54907	-20.55763	1622.92126	-1023.44495	-30.64711	1617.94458	-905.33862	117.82935	1585.82349	-1034.01343	105.28856	1585.16736	-954.99847	129.13669	1424.99133	-967.49713	174.13431	1095.96826	-962.75018	22.09351	1342.37158	-954.19727	-11.15334	1167.38159	-1021.45367	215.14223	1256.63208	-798.50256	63.72604	1380.00745	-715.38159	32.49718	1185.45325	-695.62970	7.15704	1076.76538	-685.64978	-97.28309	969.77551	-742.48059	-209.55699	923.38660	-704.71606	-171.92137	877.45520	-709.40631	-256.98529	848.56207	-1119.67847	81.88734	1375.25110	-1201.04700	188.78119	1208.09998	-1219.54114	227.18900	1092.73645	-1245.03259	269.18375	981.16766	-1231.76880	279.03696	826.81628	-1262.58655	331.08069	857.67816	-1270.50500	337.85565	772.60992	-851.97833	3.86241	934.04224	-1073.64685	-8.92776	940.69952	-892.89758	160.79401	962.77350	-1059.62183	142.80527	959.45996	-809.50824	109.76515	624.55176	-836.86731	139.46367	461.97833	-849.41858	260.79996	231.73759	-898.02649	330.66644	75.49081	-942.47229	375.91650	70.83303	-900.98615	194.70564	34.11824	-1146.83057	-29.10295	613.34412	-1122.46936	-91.12585	503.03488	-1124.50537	-153.96951	253.39096	-1088.46008	-228.94563	81.26853	-1038.81763	-208.66815	47.40288	-1101.38892	-387.29761	91.12350	-956.81921	68.79994	1675.90857												 
53	0.520	-892.82581	-34.59857	1620.83813	-1024.76086	-44.83470	1615.55530	-906.84204	103.65207	1583.55579	-1035.35620	91.05910	1582.71509	-955.91156	114.93825	1422.33069	-968.24548	158.55232	1093.19751	-963.54681	7.89750	1340.13013	-954.27216	-25.88464	1165.33582	-1021.89563	200.58969	1253.62695	-799.32129	49.83495	1378.05884	-715.93860	16.55457	1183.97095	-696.24347	-10.25374	1075.53467	-686.49268	-117.35490	971.41754	-743.79932	-230.45390	928.17499	-706.11841	-194.47160	881.22339	-710.95386	-279.98032	854.92450	-1120.49976	67.66405	1372.59058	-1201.63513	176.07652	1206.63684	-1220.27100	215.81027	1091.72632	-1245.94031	258.68701	980.52557	-1232.61145	270.21527	826.37665	-1263.33728	322.23312	857.76477	-1271.29456	329.91177	772.82654	-851.30005	-11.14641	931.64166	-1073.52441	-26.08642	938.74475	-894.02679	145.51953	960.17383	-1060.88953	126.62957	957.68243	-809.52716	98.68793	623.12762	-836.76898	130.10312	460.60980	-849.23401	256.24628	232.92099	-897.61261	329.58444	78.11104	-941.97351	374.85480	74.40991	-900.96069	194.60634	34.09857	-1148.24670	-45.56300	611.44873	-1123.65173	-106.28450	500.29761	-1124.78760	-174.96642	252.87331	-1088.26550	-255.83549	82.84665	-1038.50720	-236.68678	48.71952	-1101.78247	-413.90176	97.42507	-958.35126	54.65466	1673.63562												 
54	0.530	-894.22046	-48.71769	1618.92078	-1026.04956	-59.07874	1613.37476	-908.18597	89.68147	1581.76636	-1036.80994	76.88313	1580.59949	-956.90448	100.87323	1420.01514	-968.95313	142.81514	1090.56567	-964.37585	-6.37364	1338.19812	-954.42303	-40.78342	1163.60840	-1022.31934	185.87381	1250.72241	-800.20813	35.94864	1376.32568	-716.70251	0.65968	1182.69385	-696.87097	-27.84022	1074.64563	-687.58258	-136.87061	972.97668	-745.24622	-250.78430	932.63104	-707.59546	-215.99777	884.60297	-712.85712	-302.31973	860.31500	-1121.43774	53.55946	1370.13403	-1202.25732	163.26984	1205.40515	-1221.17310	203.94287	1090.72192	-1246.78125	247.71913	979.88855	-1233.22559	260.80243	825.85242	-1264.13525	312.35156	857.70184	-1272.03674	320.83911	772.84222	-850.82324	-26.40978	929.31000	-1073.34143	-43.44693	937.00720	-895.28107	130.10416	957.90643	-1062.07202	109.58305	955.91229	-809.79504	87.09547	621.67090	-836.90070	119.71236	459.21970	-849.06177	250.99852	234.37943	-896.95380	328.06375	81.24031	-941.13287	373.44260	78.67683	-900.95721	194.34612	34.09629	-1149.60156	-63.09820	610.15240	-1124.37976	-122.01938	498.21741	-1124.84473	-194.39439	252.22519	-1088.32422	-279.23383	83.91113	-1038.31006	-261.61380	49.24688	-1102.16370	-437.43951	102.10721	-959.92053	40.47952	1671.62354												 
55	0.540	-895.56268	-62.69700	1617.30798	-1027.42200	-73.31693	1611.49951	-909.74921	75.70618	1580.18176	-1038.29211	62.65007	1578.75232	-958.01160	86.67886	1417.92578	-969.62518	126.97150	1088.20007	-965.25977	-20.80005	1336.55127	-954.60919	-55.95539	1162.24146	-1022.77917	171.07092	1247.98132	-801.11584	22.04428	1374.86853	-717.63354	-15.17602	1181.64026	-697.73029	-44.96014	1074.10339	-688.81610	-156.02449	974.36920	-746.71796	-270.47311	936.63928	-709.15344	-236.89307	887.75159	-714.64648	-323.69910	865.44708	-1122.41370	39.55178	1367.93298	-1202.84607	150.42036	1204.43835	-1222.12158	191.82845	1089.84790	-1247.64905	236.28441	979.23492	-1233.97559	250.45093	825.35126	-1264.84277	302.06384	857.52386	-1272.75781	310.76093	772.70105	-850.01190	-41.48204	926.81531	-1073.23853	-60.79057	935.55872	-896.61871	114.37094	955.90491	-1063.16345	91.77515	954.16931	-810.12073	74.56898	620.29169	-837.11768	108.39402	457.87567	-848.91138	244.84195	236.13174	-896.13440	326.09708	84.99113	-939.91913	371.68658	83.74146	-900.97986	194.01163	34.06500	-1150.70374	-81.59936	609.26331	-1123.78845	-138.44809	496.95297	-1124.47363	-212.05826	251.47101	-1088.39185	-299.67075	83.94714	-1038.31702	-282.87021	49.02874	-1102.49805	-457.85062	104.49963	-961.50293	26.37471	1669.88977												 
56	0.550	-897.01019	-76.65170	1615.88525	-1028.85107	-87.45064	1609.84619	-911.27985	61.67334	1578.80176	-1039.80139	48.48737	1577.11853	-959.24512	72.55515	1416.13721	-970.25092	110.69255	1085.95398	-966.26440	-35.31095	1335.10498	-954.93378	-71.32186	1161.08960	-1023.21667	156.14391	1245.25452	-802.11182	8.08413	1373.65967	-718.74237	-30.86565	1180.79980	-698.76215	-62.34534	1073.85059	-690.19940	-174.69444	975.77985	-748.24622	-289.56821	940.25232	-710.64203	-257.11765	890.55786	-716.46930	-344.22662	870.10779	-1123.42859	25.56970	1366.04785	-1203.38049	137.51897	1203.70557	-1223.12036	179.38902	1089.17896	-1248.47131	224.42201	978.70496	-1234.60425	239.07243	824.98639	-1265.92505	289.63586	857.26337	-1273.50195	299.57999	772.44360	-849.62170	-57.18056	924.65808	-1073.22595	-78.24540	934.36102	-898.04102	98.39698	954.13049	-1064.54199	75.12537	953.37097	-810.60095	61.23428	618.92798	-837.34967	96.37030	456.77417	-848.65100	238.17906	238.39613	-894.97736	323.63147	89.41774	-938.95239	369.50735	89.67798	-900.80603	193.52995	34.21294	-1151.53979	-100.82805	608.93329	-1122.84583	-156.51236	496.93524	-1123.95715	-228.84412	250.49323	-1088.63000	-316.90564	83.08965	-1038.26001	-300.34897	47.78366	-1102.43311	-474.99136	104.35090	-963.23425	12.23027	1668.37793												 
57	0.560	-898.46741	-90.62800	1614.88879	-1030.31287	-101.63013	1608.50696	-913.01477	47.62202	1577.53564	-1041.41980	34.33566	1575.68115	-960.40540	58.25763	1414.46094	-970.96033	94.42409	1084.04626	-967.30426	-49.86954	1333.89502	-955.35272	-86.80827	1160.13904	-1023.65100	141.03616	1242.67896	-803.15930	-5.94644	1372.71716	-719.99438	-46.52469	1180.23083	-700.39844	-79.31860	1073.39160	-691.69244	-192.73027	977.02856	-749.81525	-308.08142	943.40198	-712.66174	-276.27301	893.13470	-718.27588	-363.74283	874.04803	-1124.42456	11.52388	1364.49048	-1203.90393	124.25018	1203.14392	-1224.02686	166.48682	1088.60364	-1249.41028	211.85452	978.25427	-1235.39734	227.09885	824.50342	-1266.82324	277.62787	856.91583	-1274.22986	287.51691	772.12616	-849.46570	-73.13126	922.78845	-1073.28210	-95.84079	933.64368	-899.42609	82.01842	952.51984	-1065.75671	57.76255	952.59991	-811.33423	47.31712	617.81146	-837.64197	83.80596	455.87369	-848.49048	231.16075	241.23647	-894.13074	320.80048	94.67964	-937.91595	366.55762	96.29979	-900.86115	192.98361	34.34108	-1151.98804	-120.58453	609.17987	-1122.60706	-175.53456	497.58575	-1123.84448	-245.41844	249.41675	-1087.92810	-331.21854	81.08538	-1037.48706	-314.19144	45.69583	-1102.08936	-488.94806	101.48582	-964.96088	-1.73944	1667.12793												 
58	0.570	-900.00769	-104.48705	1614.06958	-1031.81421	-115.68771	1607.39709	-914.58478	33.61909	1576.47986	-1043.01953	20.21379	1574.33484	-961.61780	43.87792	1413.03699	-971.66327	77.87469	1082.36401	-968.39209	-64.73507	1332.99072	-955.95190	-102.63741	1159.49036	-1024.11572	125.71963	1240.33203	-804.35254	-20.12772	1371.99097	-721.38025	-62.25077	1179.94153	-702.00842	-95.71638	1073.54749	-693.36462	-210.23911	978.20526	-751.44226	-325.97391	946.12207	-714.17902	-294.96948	895.38531	-720.05115	-382.48022	877.44324	-1125.44055	-2.62249	1363.24231	-1204.55310	110.56754	1202.61914	-1224.90173	153.21762	1088.23022	-1250.32336	198.81653	977.91876	-1236.35168	214.00885	824.26001	-1267.68323	264.56900	856.59558	-1275.01733	274.57501	771.73041	-849.66071	-89.53948	921.25116	-1073.58337	-113.49921	933.32178	-900.76349	65.21735	951.17487	-1066.72937	39.60531	951.78949	-812.06122	32.67614	616.83862	-837.87073	70.54444	455.20016	-848.31006	223.60745	244.52344	-893.47430	317.50143	100.30295	-937.07990	363.05698	103.70512	-900.97180	192.28525	34.58801	-1152.25696	-140.40158	609.93695	-1123.03479	-195.23633	498.58102	-1123.77905	-261.60431	248.17836	-1086.50964	-342.56387	77.97408	-1036.24451	-325.13065	42.74657	-1101.34949	-500.29062	96.39086	-966.73279	-15.61787	1666.00977												 
59	0.580	-901.89825	-118.42670	1613.55103	-1033.29333	-129.63786	1606.59253	-916.11609	19.80469	1575.63440	-1044.57874	6.06907	1573.11353	-962.85907	29.35979	1411.83887	-972.46637	61.20671	1080.90552	-969.64520	-79.65321	1332.28870	-956.73865	-118.71020	1159.08484	-1024.67615	110.09235	1238.29858	-805.69812	-34.44708	1371.36707	-722.93500	-77.89193	1179.78516	-703.67926	-112.07890	1073.75305	-695.03003	-227.36537	979.21777	-753.13800	-343.28137	948.38434	-716.02631	-312.75577	897.21973	-721.79944	-400.49768	880.23975	-1126.50696	-17.00608	1362.24768	-1205.26599	96.58700	1202.19641	-1225.76855	139.61627	1087.91553	-1251.20386	185.26288	977.62579	-1237.37610	200.24974	823.87988	-1268.47498	250.90207	856.29333	-1275.83594	260.79321	771.34851	-850.10669	-106.24781	920.04675	-1074.07007	-131.54077	933.37103	-902.01227	47.95403	950.01575	-1067.57971	21.80864	951.42535	-812.91205	17.77820	616.01276	-838.18085	56.57681	454.60315	-848.41925	215.47823	248.34584	-893.04773	313.45459	106.68998	-936.58337	358.73077	111.83924	-901.08521	191.74373	34.73331	-1152.53491	-160.17958	611.10632	-1123.35938	-215.41434	499.83676	-1123.98364	-277.34833	246.79599	-1085.41565	-351.86935	74.08284	-1034.87073	-333.30084	39.16835	-1099.95190	-509.36215	89.87333	-968.50110	-29.36834	1665.10876												 
